PathFileType	4	(X/Y/Z)	C:\Users\Basilio\Documents\Thesis Gigler\squatting_fais\c3dfiles\075\SLS_back_pre2\markers_experimental.trc
DataRate	CameraRate	NumFrames	NumMarkers	Units	OrigDataRate	OrigDataStartFrame	OrigNumFrames
200.000000	200.000000	4	61	mm	200.000000	830	1329
Frame#	Time	FHD			LBHD			C7			T10			CLAV			LSHO			LUUPA			LMUPA			LDUPA			LLEP			LMEP			LRAD			LUL			LRFIN			RSHO			RUPA1			RMUPA			RDUPA			RLEP			RMEP			RRAD			RUL			RUFIN			LASI			RASI			USACR			LSACR			RSACR			LTHI1			LTHI2			LTHI3			LTHI4			LLFC			LMFC			LTIB1			LTIB2			LTIB3			LTIB4			LLMAL			LMMAL			LHEE			LMT1			LMT2			LMT5			RTHI			RTHI2			RTHI3			RTHI4			RLFC			RMFC			RTIB1			RTIB2			RTIB3			RTIB4			RLMAL			RMMAL			RHEE			RMT1			RMT2			RMT5			RBHD			
		X1	Y1	Z1	X2	Y2	Z2	X3	Y3	Z3	X4	Y4	Z4	X5	Y5	Z5	X6	Y6	Z6	X7	Y7	Z7	X8	Y8	Z8	X9	Y9	Z9	X10	Y10	Z10	X11	Y11	Z11	X12	Y12	Z12	X13	Y13	Z13	X14	Y14	Z14	X15	Y15	Z15	X16	Y16	Z16	X17	Y17	Z17	X18	Y18	Z18	X19	Y19	Z19	X20	Y20	Z20	X21	Y21	Z21	X22	Y22	Z22	X23	Y23	Z23	X24	Y24	Z24	X25	Y25	Z25	X26	Y26	Z26	X27	Y27	Z27	X28	Y28	Z28	X29	Y29	Z29	X30	Y30	Z30	X31	Y31	Z31	X32	Y32	Z32	X33	Y33	Z33	X34	Y34	Z34	X35	Y35	Z35	X36	Y36	Z36	X37	Y37	Z37	X38	Y38	Z38	X39	Y39	Z39	X40	Y40	Z40	X41	Y41	Z41	X42	Y42	Z42	X43	Y43	Z43	X44	Y44	Z44	X45	Y45	Z45	X46	Y46	Z46	X47	Y47	Z47	X48	Y48	Z48	X49	Y49	Z49	X50	Y50	Z50	X51	Y51	Z51	X52	Y52	Z52	X53	Y53	Z53	X54	Y54	Z54	X55	Y55	Z55	X56	Y56	Z56	X57	Y57	Z57	X58	Y58	Z58	X59	Y59	Z59	X60	Y60	Z60	X61	Y61	Z61	

831	4.15	-186.7213439941407	1626.386962890625	-747.9349975585939	-334.7138671875001	1515.895874023438	-823.715515136719	-375.6845703125001	1414.024658203125	-766.5347290039064	-475.0631408691407	1111.52294921875	-775.0657958984377	-246.5604248046876	1330.67431640625	-760.3753051757814	-262.0490722656251	1397.456909179688	-887.5000000000002	-110.0449295043946	1336.550659179688	-988.173522949219	-82.95112609863283	1358.43115234375	-952.5513916015627	-40.24848175048829	1333.481689453125	-987.0302734375002	43.59117889404298	1328.895141601563	-973.3442993164065	29.88339042663575	1253.326049804688	-931.6188964843752	nan	nan	nan	260.2601013183594	1373.977661132813	-835.409851074219	250.9675598144532	1399.0458984375	-730.0637817382814	-285.0809631347657	1373.595336914063	-625.5061645507814	-156.9320373535157	1301.404418945313	-507.799041748047	-121.6654434204102	1324.173583984375	-532.9013061523439	-88.23365783691408	1292.697509765625	-492.8093872070314	-16.51520538330078	1292.116577148438	-492.2777099609376	-4.463902950286866	1221.791870117188	-524.8966674804689	184.9028015136719	1364.254760742188	-669.5828247070314	211.0657348632813	1359.573364257813	-598.7803344726564	254.3890075683594	1413.61962890625	-693.0997924804689	-362.7556152343751	919.8569335937502	-910.2584228515627	-363.0335693359376	906.5618896484377	-658.5183715820314	-502.2096252441407	1011.156127929688	-782.5777587890627	-514.7760009765626	983.5422363281252	-811.831726074219	-516.5915527343751	981.532165527344	-754.1301269531251	-349.6541748046876	731.1352539062501	-1013.289184570313	-289.3881225585938	672.8176879882814	-1023.325134277344	-252.7107849121094	686.0295410156251	-992.476257324219	-295.2064514160157	612.7221679687501	-1034.747924804688	-283.5467224121094	523.9594116210939	-1038.64501953125	-266.1695556640626	478.1665649414064	-912.2092285156252	-341.0816040039063	407.6060791015626	-1008.9970703125	-405.0468750000001	449.6232299804689	-1051.6259765625	-392.3013916015626	409.2594299316407	-1037.0703125	-465.2037658691407	378.3368530273438	-1006.769348144531	-623.4700927734376	399.8755187988282	-1017.380859375	-597.7326660156251	367.8655700683594	-938.919860839844	-663.9979248046876	439.9882202148439	-967.3101196289065	-643.5361938476564	231.3155364990235	-957.8967285156252	-641.3552856445314	230.0014648437501	-1007.394409179688	-674.4312133789064	268.4526977539063	-1051.41845703125	-396.6618041992189	719.8428344726564	-608.5062255859376	-338.3907165527344	688.4219360351564	-612.0665893554689	-311.7079467773438	707.9822998046876	-620.4284667968751	-327.8577270507813	605.4927978515626	-625.9660644531251	-281.6450500488282	469.488494873047	-671.2341918945314	-248.0283966064454	484.1600036621095	-791.8330078125002	-249.3464050292969	333.9590148925782	-758.7659912109376	-310.6603088378907	258.9813842773438	-708.9586181640626	-277.9728698730469	252.5662689208985	-745.0498657226564	-300.9511718750001	218.8168945312501	-786.9010009765627	-391.4141845703126	111.6450271606446	-762.4201049804689	-361.8860473632813	142.9598693847657	-841.821228027344	-449.4486083984376	98.53106689453128	-822.4978027343752	-246.8964385986329	57.31788253784181	-835.4090576171877	-246.4411773681641	55.32897949218751	-793.167175292969	-283.8667907714844	33.95576477050782	-741.2234497070314	-300.8036499023438	1549.84716796875	-668.2955322265626	
832	4.155	-187.5601654052735	1628.75439453125	-747.8524780273439	-335.2285156250001	1518.377685546875	-823.7458496093752	-376.2198181152344	1416.19921875	-766.4552001953126	-474.8401184082032	1113.425903320313	-774.9505004882815	-246.7476806640626	1333.098876953125	-760.1422729492189	-262.3748474121094	1399.90283203125	-887.306091308594	-110.4619216918946	1339.0712890625	-988.0520629882815	-83.25015258789064	1361.18310546875	-952.3704833984377	-40.34759902954102	1336.416259765625	-986.868347167969	43.36609649658204	1331.8388671875	-973.2059326171877	29.53074073791505	1256.27099609375	-931.652038574219	nan	nan	nan	259.6359558105469	1377.523315429688	-835.2678222656252	250.4729614257813	1402.57177734375	-729.9770507812501	-285.6734619140626	1375.964233398438	-625.5564575195314	-157.257568359375	1304.210571289063	-507.3351135253907	-122.0945663452149	1326.794677734375	-532.8411865234376	-88.53507232666017	1295.447998046875	-492.6526489257814	-16.80066871643067	1295.008422851563	-492.126922607422	-4.444252967834474	1224.884521484375	-524.6844482421876	184.3412780761719	1367.56640625	-669.2426757812501	210.6587677001954	1363.237915039063	-598.5488891601564	253.9431304931641	1417.156860351563	-692.9208374023439	-362.0509948730469	921.9455566406252	-910.303649902344	-362.6729431152344	908.4299926757815	-658.4619140625001	-501.7587890625001	1012.698181152344	-782.571960449219	-514.1242675781251	985.3864746093752	-811.8657226562502	-515.9403076171876	983.3338012695315	-754.1353149414064	-348.6312866210938	733.3608398437501	-1013.411926269531	-288.3205871582032	675.0642700195314	-1023.22021484375	-251.7458953857422	688.2698974609376	-992.5374145507815	-294.8140563964844	615.0520629882814	-1034.765869140625	-282.0145874023438	525.9985351562501	-1038.390747070313	-264.4597167968751	480.4620056152345	-911.9456176757815	-338.8315124511719	409.4006347656251	-1008.883911132813	-403.5749511718751	451.6349182128907	-1051.275634765625	-390.8186645507814	411.4338989257814	-1036.724853515625	-463.1925659179689	380.1942443847657	-1006.105407714844	-622.0300903320314	401.5115661621095	-1017.174377441406	-596.2220458984376	369.6664428710938	-938.383483886719	-662.6666870117189	441.6291809082032	-967.0283203125002	-641.9594116210939	233.0459289550782	-957.7148437500002	-639.6956787109376	231.6952667236329	-1007.186157226563	-672.7142944335939	270.1694335937501	-1051.144775390625	-396.8027343750001	721.3895263671876	-608.5217285156251	-338.8820800781251	689.6507568359376	-612.0641479492189	-311.9129333496094	709.0380249023439	-620.2835693359376	-328.7283935546876	606.5643920898439	-625.9523315429689	-283.2001647949219	470.2569580078126	-671.0551147460939	-249.364730834961	484.7706298828126	-791.8447265625002	-250.1645660400391	334.3912963867188	-758.3789672851564	-311.5583801269532	259.4307556152344	-708.8201293945314	-279.1290283203126	253.2935180664063	-744.9262695312501	-301.2038574218751	219.1970825195313	-786.6258544921877	-391.451141357422	111.6690902709961	-762.3748168945314	-362.0234680175782	142.919174194336	-841.7603759765627	-449.4365844726564	98.50755310058597	-822.4802246093752	-246.7986450195313	57.34278488159181	-835.373229980469	-246.4345703125001	55.32944869995119	-793.1514892578127	-283.8335876464844	33.9138526916504	-741.2169799804689	-301.3023071289063	1552.377197265625	-668.5774536132814	
833	4.16	-187.9960174560547	1631.151733398438	-747.6969604492189	-335.8523559570313	1520.236450195313	-823.6746826171877	-376.7193603515626	1418.406372070313	-766.3169555664064	-474.5381774902345	1115.316772460938	-774.8870239257815	-248.2960510253907	1334.6171875	-759.9088134765626	-262.8045654296876	1402.249633789063	-887.3016357421877	-110.7108993530274	1341.6826171875	-987.8628540039065	-83.67761230468751	1363.955200195313	-952.2739257812502	-41.10459518432618	1339.282470703125	-986.767517089844	43.10120010375977	1334.867431640625	-973.055114746094	29.40992546081544	1259.296752929688	-931.5556640625002	nan	nan	nan	259.3121948242188	1381.042236328125	-835.2703857421877	250.1658325195313	1406.216552734375	-729.7836914062501	-286.0681457519532	1378.163940429688	-625.3531494140626	-157.636962890625	1306.718139648438	-507.1281738281251	-122.3848266601563	1329.609375	-532.6848754882814	-88.76478576660158	1298.323486328125	-492.4682617187501	-17.08674430847168	1297.790405273438	-492.0154113769532	-4.571761131286622	1227.74951171875	-524.5468139648439	183.9328765869141	1370.90966796875	-669.0632324218751	210.2252807617188	1366.602172851563	-598.3427734375001	253.1634826660157	1420.472900390625	-692.5139770507814	-361.0179138183594	923.9983520507815	-909.855407714844	-362.0218505859376	910.4751586914065	-658.1055908203126	-501.2564086914064	1014.813720703125	-782.5211181640627	-513.4986572265626	987.3161621093752	-811.8184204101565	-515.6375122070314	985.0920410156252	-754.2276611328126	-347.1623229980469	735.3397827148439	-1013.316955566406	-286.8778991699219	677.0678100585939	-1023.015686035156	-250.3273162841797	690.4259033203126	-992.0078735351565	-292.8000488281251	617.0543212890626	-1034.535278320313	-280.8761291503907	528.1421508789064	-1038.144897460938	-263.4190979003907	482.7608337402345	-911.7633056640627	-337.2992553710938	411.6242675781251	-1008.557983398438	-402.2130126953126	453.6359863281251	-1051.140869140625	-389.3226623535157	413.3026123046876	-1036.48291015625	-462.1574707031251	382.2955017089844	-1006.439880371094	-620.2706298828126	402.987274169922	-1016.870483398438	-594.6304321289064	371.3764038085938	-938.2825317382815	-661.2570800781251	443.338348388672	-966.8060302734377	-639.8682250976564	234.7224121093751	-957.1345825195315	-637.9656372070314	233.3608703613282	-1006.798034667969	-671.0653686523439	271.7562866210938	-1050.818481445313	-397.0266418457032	722.8318481445314	-608.4464721679689	-339.2254333496094	690.7292480468751	-612.1235961914064	-312.2424621582032	709.9144287109376	-620.0283813476564	-329.7286376953126	607.6474609375001	-625.9524536132814	-284.7547607421876	470.8968811035157	-670.9047241210939	-250.403060913086	485.169158935547	-791.654968261719	-251.5041198730469	335.0658264160157	-758.4423828125001	-312.4945068359376	259.7169799804688	-708.6484985351564	-279.8619689941407	253.6800384521485	-744.6528320312501	-301.6394958496094	219.4148101806641	-786.433288574219	-391.5275268554689	111.7012481689453	-762.3527832031251	-362.1643981933594	143.0261383056641	-841.6314697265627	-449.4523010253907	98.5510177612305	-822.4066162109377	-246.8329467773438	57.29210662841798	-835.4238281250002	-246.4093475341797	55.27803039550783	-793.1563720703127	-283.8497314453126	33.90086364746094	-741.2349243164064	-302.0770568847657	1554.640258789063	-668.2036743164064	
834	4.165	-189.1157989501953	1633.941040039063	-747.8421630859376	-336.5534667968751	1522.926635742188	-823.7097778320315	-377.0960998535157	1420.444213867188	-766.1661376953126	-474.3169860839845	1117.290405273438	-774.8421630859377	-248.6655883789063	1337.119262695313	-759.8394165039064	-263.2615356445313	1404.450805664063	-887.0579223632815	-111.0188217163086	1344.528442382813	-987.7344970703127	-84.12972259521486	1366.646362304688	-952.0369262695315	-41.26536941528321	1341.989624023438	-986.5879516601565	42.81586837768555	1337.880737304688	-972.8957519531252	29.1540756225586	1262.238159179688	-931.5213623046877	nan	nan	nan	258.7895812988282	1384.481323242188	-835.0308837890627	249.7247009277344	1409.4560546875	-729.6714477539064	-286.4939270019532	1380.580688476563	-625.1826782226564	-157.8597869873047	1309.316528320313	-507.137664794922	-122.8077926635742	1332.227294921875	-532.5775756835939	-89.01199340820314	1301.070068359375	-492.2788391113282	-17.35464477539063	1300.69970703125	-491.8385009765626	-4.82283115386963	1230.577392578125	-524.3937377929689	183.5365600585938	1374.130859375	-668.9916992187501	209.9561462402344	1370.14599609375	-598.0186767578126	252.6300201416016	1423.910766601563	-692.3486328125001	-360.4045715332032	926.092468261719	-909.754333496094	-361.6411132812501	912.4273071289065	-658.1765747070314	-500.7163696289064	1016.820251464844	-782.518493652344	-513.1228027343751	989.137878417969	-811.912292480469	-515.2554931640626	986.9394531250002	-754.2831420898439	-346.4488220214844	737.6394653320314	-1013.381164550781	-286.2095947265626	679.5532226562501	-1022.954772949219	-249.4066314697266	692.7310180664064	-992.112487792969	-291.5446166992188	619.3436889648439	-1034.33837890625	-279.4679565429688	530.4467773437501	-1037.877807617188	-261.8741760253907	484.9101867675782	-911.4185180664065	-335.8625183105469	413.7281188964845	-1008.238037109375	-400.6918334960939	455.7041625976564	-1050.874755859375	-387.7820739746095	415.3495483398439	-1036.196044921875	-460.2938232421876	384.1202697753907	-1005.600524902344	-618.9356079101564	404.8096313476564	-1016.704772949219	-593.0432128906251	373.1349792480469	-937.8723144531252	-659.5968017578126	444.7054748535157	-966.521667480469	-638.2403564453126	236.4087982177735	-956.9753417968752	-636.0192260742189	235.0639038085938	-1006.336181640625	-669.3126220703126	273.3101806640626	-1050.514526367188	-397.2834472656251	724.2661743164064	-608.5440063476564	-339.6380615234376	691.8590087890626	-612.0282592773439	-312.5680236816407	710.8571166992189	-619.8727416992189	-330.7985839843751	608.5695190429689	-625.9378051757814	-286.3078002929688	471.6369934082032	-670.8067016601564	-251.8876037597657	485.9205932617189	-791.5352172851565	-252.644271850586	335.7150268554688	-758.0334472656251	-313.2775268554688	260.0216979980469	-708.6138305664064	-280.3738403320313	254.1381835937501	-744.2511596679689	-302.3652648925782	219.8792114257813	-786.2789306640627	-391.5441894531251	111.7035522460938	-762.3228149414064	-362.1780090332032	143.0801391601563	-841.5443115234377	-449.4366455078126	98.57044982910159	-822.3801879882815	-246.8401794433594	57.36864852905275	-835.4522705078127	-246.3635711669922	55.3035354614258	-793.1755371093752	-283.8126831054688	33.87279510498048	-741.2153320312501	-302.9527282714844	1556.829833984375	-668.0090942382814	
